<mxfile host="app.diagrams.net" modified="2021-01-11T02:43:18.748Z" agent="5.0 (Macintosh; Intel Mac OS X 10_15_7) AppleWebKit/605.1.15 (KHTML, like Gecko) Version/14.0.1 Safari/605.1.15" etag="_ymPGO_bL0-qSaztMyzR" version="14.1.9" type="github">
  <diagram id="C5RBs43oDa-KdzZeNtuy" name="Page-1">
    <mxGraphModel dx="1231" dy="268" grid="1" gridSize="10" guides="1" tooltips="1" connect="1" arrows="1" fold="1" page="1" pageScale="1" pageWidth="827" pageHeight="1169" math="0" shadow="0">
      <root>
        <mxCell id="WIyWlLk6GJQsqaUBKTNV-0" />
        <mxCell id="WIyWlLk6GJQsqaUBKTNV-1" parent="WIyWlLk6GJQsqaUBKTNV-0" />
        <mxCell id="WIyWlLk6GJQsqaUBKTNV-2" value="" style="rounded=0;html=1;jettySize=auto;orthogonalLoop=1;fontSize=11;endArrow=block;endFill=0;endSize=8;strokeWidth=1;shadow=0;labelBackgroundColor=none;edgeStyle=orthogonalEdgeStyle;" parent="WIyWlLk6GJQsqaUBKTNV-1" source="WIyWlLk6GJQsqaUBKTNV-3" target="WIyWlLk6GJQsqaUBKTNV-6" edge="1">
          <mxGeometry relative="1" as="geometry" />
        </mxCell>
        <mxCell id="WIyWlLk6GJQsqaUBKTNV-3" value="Validate interface" style="rounded=1;whiteSpace=wrap;html=1;fontSize=12;glass=0;strokeWidth=1;shadow=0;" parent="WIyWlLk6GJQsqaUBKTNV-1" vertex="1">
          <mxGeometry x="-790" y="430.16999999999996" width="120" height="40" as="geometry" />
        </mxCell>
        <mxCell id="WIyWlLk6GJQsqaUBKTNV-4" value="Huawei" style="rounded=0;html=1;jettySize=auto;orthogonalLoop=1;fontSize=11;endArrow=block;endFill=0;endSize=8;strokeWidth=1;shadow=0;labelBackgroundColor=none;edgeStyle=orthogonalEdgeStyle;entryX=0;entryY=0.5;entryDx=0;entryDy=0;exitX=0.5;exitY=1;exitDx=0;exitDy=0;" parent="WIyWlLk6GJQsqaUBKTNV-1" source="WIyWlLk6GJQsqaUBKTNV-6" target="bVRr8DS_3ZcKGTm57Yvw-1" edge="1">
          <mxGeometry y="20" relative="1" as="geometry">
            <mxPoint as="offset" />
            <mxPoint x="-569.9999999999998" y="590.1700000000003" as="targetPoint" />
          </mxGeometry>
        </mxCell>
        <mxCell id="WIyWlLk6GJQsqaUBKTNV-5" value="Cisco" style="edgeStyle=orthogonalEdgeStyle;rounded=0;html=1;jettySize=auto;orthogonalLoop=1;fontSize=11;endArrow=block;endFill=0;endSize=8;strokeWidth=1;shadow=0;labelBackgroundColor=none;exitX=0.5;exitY=0;exitDx=0;exitDy=0;entryX=0;entryY=0.5;entryDx=0;entryDy=0;" parent="WIyWlLk6GJQsqaUBKTNV-1" source="WIyWlLk6GJQsqaUBKTNV-6" target="bVRr8DS_3ZcKGTm57Yvw-2" edge="1">
          <mxGeometry y="10" relative="1" as="geometry">
            <mxPoint as="offset" />
            <mxPoint x="-470.0000000000002" y="390.20448275862066" as="targetPoint" />
          </mxGeometry>
        </mxCell>
        <mxCell id="WIyWlLk6GJQsqaUBKTNV-6" value="Device Type" style="rhombus;whiteSpace=wrap;html=1;shadow=0;fontFamily=Helvetica;fontSize=12;align=center;strokeWidth=1;spacing=6;spacingTop=-4;" parent="WIyWlLk6GJQsqaUBKTNV-1" vertex="1">
          <mxGeometry x="-630" y="410.16999999999996" width="100" height="80" as="geometry" />
        </mxCell>
        <mxCell id="WIyWlLk6GJQsqaUBKTNV-12" value="Get VRF/ L2 mode/ &lt;br&gt;Qos policy/Dot1q QinQ Main Interface Mode/Main interface in Bundle Mode&lt;br&gt;In Device Config&amp;nbsp;" style="rounded=1;whiteSpace=wrap;html=1;fontSize=12;glass=0;strokeWidth=1;shadow=0;" parent="WIyWlLk6GJQsqaUBKTNV-1" vertex="1">
          <mxGeometry x="-410" y="410.16999999999996" width="137" height="90" as="geometry" />
        </mxCell>
        <mxCell id="bVRr8DS_3ZcKGTm57Yvw-1" value="Check Main &lt;br&gt;Interface in &lt;br&gt;Device Config&amp;nbsp;" style="rhombus;whiteSpace=wrap;html=1;shadow=0;fontFamily=Helvetica;fontSize=12;align=center;strokeWidth=1;spacing=6;spacingTop=-4;" parent="WIyWlLk6GJQsqaUBKTNV-1" vertex="1">
          <mxGeometry x="-520.1800000000001" y="500.17" width="130" height="90" as="geometry" />
        </mxCell>
        <mxCell id="bVRr8DS_3ZcKGTm57Yvw-2" value="Check Main Interface in Live Status" style="rhombus;whiteSpace=wrap;html=1;shadow=0;fontFamily=Helvetica;fontSize=12;align=center;strokeWidth=1;spacing=6;spacingTop=-4;rotation=-1;" parent="WIyWlLk6GJQsqaUBKTNV-1" vertex="1">
          <mxGeometry x="-510.18" y="330" width="120" height="100" as="geometry" />
        </mxCell>
        <mxCell id="bVRr8DS_3ZcKGTm57Yvw-10" value="Main interface&lt;br&gt;&amp;nbsp;in Bundle Mode&lt;br&gt;(None Bundle SNA)&lt;br&gt;or &lt;br&gt;If service doq1q or qinq:&lt;br&gt;Main Interface in VRF or L2mode&amp;nbsp;" style="rhombus;whiteSpace=wrap;html=1;shadow=0;fontFamily=Helvetica;fontSize=12;align=center;strokeWidth=1;spacing=6;spacingTop=-4;" parent="WIyWlLk6GJQsqaUBKTNV-1" vertex="1">
          <mxGeometry x="-240" y="360" width="180" height="190" as="geometry" />
        </mxCell>
        <mxCell id="bVRr8DS_3ZcKGTm57Yvw-11" value="Yes" style="edgeStyle=orthogonalEdgeStyle;rounded=0;html=1;jettySize=auto;orthogonalLoop=1;fontSize=11;endArrow=block;endFill=0;endSize=8;strokeWidth=1;shadow=0;labelBackgroundColor=none;exitX=1;exitY=0.5;exitDx=0;exitDy=0;entryX=0.5;entryY=0;entryDx=0;entryDy=0;" parent="WIyWlLk6GJQsqaUBKTNV-1" source="bVRr8DS_3ZcKGTm57Yvw-2" target="WIyWlLk6GJQsqaUBKTNV-12" edge="1">
          <mxGeometry y="10" relative="1" as="geometry">
            <mxPoint as="offset" />
            <mxPoint x="-570.0000000000002" y="420.16999999999996" as="sourcePoint" />
            <mxPoint x="-350" y="465.16999999999996" as="targetPoint" />
          </mxGeometry>
        </mxCell>
        <mxCell id="bVRr8DS_3ZcKGTm57Yvw-12" value="Yes" style="edgeStyle=orthogonalEdgeStyle;rounded=0;html=1;jettySize=auto;orthogonalLoop=1;fontSize=11;endArrow=block;endFill=0;endSize=8;strokeWidth=1;shadow=0;labelBackgroundColor=none;exitX=1;exitY=0.5;exitDx=0;exitDy=0;entryX=0.535;entryY=1.005;entryDx=0;entryDy=0;entryPerimeter=0;" parent="WIyWlLk6GJQsqaUBKTNV-1" source="bVRr8DS_3ZcKGTm57Yvw-1" target="WIyWlLk6GJQsqaUBKTNV-12" edge="1">
          <mxGeometry y="10" relative="1" as="geometry">
            <mxPoint as="offset" />
            <mxPoint x="-380.1891382906167" y="388.95285561376306" as="sourcePoint" />
            <mxPoint x="-350" y="465.16999999999996" as="targetPoint" />
          </mxGeometry>
        </mxCell>
        <mxCell id="bVRr8DS_3ZcKGTm57Yvw-16" style="edgeStyle=orthogonalEdgeStyle;rounded=0;orthogonalLoop=1;jettySize=auto;html=1;" parent="WIyWlLk6GJQsqaUBKTNV-1" source="bVRr8DS_3ZcKGTm57Yvw-13" edge="1">
          <mxGeometry relative="1" as="geometry">
            <mxPoint x="-580.0000000000002" y="640.1700000000001" as="targetPoint" />
          </mxGeometry>
        </mxCell>
        <mxCell id="bVRr8DS_3ZcKGTm57Yvw-13" value="Exception" style="rounded=1;whiteSpace=wrap;html=1;fontSize=12;glass=0;strokeWidth=1;shadow=0;" parent="WIyWlLk6GJQsqaUBKTNV-1" vertex="1">
          <mxGeometry x="-648.5" y="640.1700000000001" width="137" height="40" as="geometry" />
        </mxCell>
        <mxCell id="bVRr8DS_3ZcKGTm57Yvw-14" value="No" style="edgeStyle=orthogonalEdgeStyle;rounded=0;html=1;jettySize=auto;orthogonalLoop=1;fontSize=11;endArrow=block;endFill=0;endSize=8;strokeWidth=1;shadow=0;labelBackgroundColor=none;exitX=0.5;exitY=1;exitDx=0;exitDy=0;" parent="WIyWlLk6GJQsqaUBKTNV-1" source="bVRr8DS_3ZcKGTm57Yvw-1" edge="1">
          <mxGeometry y="10" relative="1" as="geometry">
            <mxPoint as="offset" />
            <mxPoint x="-380.18000000000006" y="555.1700000000001" as="sourcePoint" />
            <mxPoint x="-580" y="640.1700000000001" as="targetPoint" />
          </mxGeometry>
        </mxCell>
        <mxCell id="bVRr8DS_3ZcKGTm57Yvw-15" value="No" style="edgeStyle=orthogonalEdgeStyle;rounded=0;html=1;jettySize=auto;orthogonalLoop=1;fontSize=11;endArrow=block;endFill=0;endSize=8;strokeWidth=1;shadow=0;labelBackgroundColor=none;exitX=0.5;exitY=0;exitDx=0;exitDy=0;" parent="WIyWlLk6GJQsqaUBKTNV-1" source="bVRr8DS_3ZcKGTm57Yvw-2" edge="1">
          <mxGeometry y="10" relative="1" as="geometry">
            <mxPoint as="offset" />
            <mxPoint x="-445.18000000000006" y="600.1700000000001" as="sourcePoint" />
            <mxPoint x="-580" y="640.1700000000001" as="targetPoint" />
            <Array as="points">
              <mxPoint x="-650" y="330.17" />
              <mxPoint x="-650" y="610.1700000000001" />
              <mxPoint x="-580" y="610.1700000000001" />
            </Array>
          </mxGeometry>
        </mxCell>
        <mxCell id="bVRr8DS_3ZcKGTm57Yvw-19" value="" style="edgeStyle=orthogonalEdgeStyle;rounded=0;html=1;jettySize=auto;orthogonalLoop=1;fontSize=11;endArrow=block;endFill=0;endSize=8;strokeWidth=1;shadow=0;labelBackgroundColor=none;exitX=1;exitY=0.5;exitDx=0;exitDy=0;" parent="WIyWlLk6GJQsqaUBKTNV-1" source="WIyWlLk6GJQsqaUBKTNV-12" target="bVRr8DS_3ZcKGTm57Yvw-10" edge="1">
          <mxGeometry y="10" relative="1" as="geometry">
            <mxPoint as="offset" />
            <mxPoint x="-380.18000000000006" y="555.1700000000001" as="sourcePoint" />
            <mxPoint x="-296.7049999999999" y="510.62000000000006" as="targetPoint" />
          </mxGeometry>
        </mxCell>
        <mxCell id="bVRr8DS_3ZcKGTm57Yvw-20" value="Yes" style="edgeStyle=orthogonalEdgeStyle;rounded=0;html=1;jettySize=auto;orthogonalLoop=1;fontSize=11;endArrow=block;endFill=0;endSize=8;strokeWidth=1;shadow=0;labelBackgroundColor=none;exitX=0.5;exitY=1;exitDx=0;exitDy=0;entryX=1;entryY=0.5;entryDx=0;entryDy=0;" parent="WIyWlLk6GJQsqaUBKTNV-1" source="bVRr8DS_3ZcKGTm57Yvw-10" target="bVRr8DS_3ZcKGTm57Yvw-13" edge="1">
          <mxGeometry y="10" relative="1" as="geometry">
            <mxPoint as="offset" />
            <mxPoint x="-145.18000000000006" y="570.1700000000001" as="sourcePoint" />
            <mxPoint x="-270.0000000000002" y="620.1700000000001" as="targetPoint" />
          </mxGeometry>
        </mxCell>
        <mxCell id="bVRr8DS_3ZcKGTm57Yvw-25" value="No" style="edgeStyle=orthogonalEdgeStyle;rounded=0;html=1;jettySize=auto;orthogonalLoop=1;fontSize=11;endArrow=block;endFill=0;endSize=8;strokeWidth=1;shadow=0;labelBackgroundColor=none;exitX=1;exitY=0.5;exitDx=0;exitDy=0;" parent="WIyWlLk6GJQsqaUBKTNV-1" source="bVRr8DS_3ZcKGTm57Yvw-10" target="bVRr8DS_3ZcKGTm57Yvw-30" edge="1">
          <mxGeometry y="10" relative="1" as="geometry">
            <mxPoint as="offset" />
            <mxPoint x="-90" y="490.16999999999996" as="sourcePoint" />
            <mxPoint x="-30" y="455.1700000000002" as="targetPoint" />
            <Array as="points" />
          </mxGeometry>
        </mxCell>
        <mxCell id="bVRr8DS_3ZcKGTm57Yvw-30" value="Check interface of device &lt;br&gt;in other Service Site SNA&lt;br&gt;&amp;nbsp;not equal Service Site SNA&lt;br&gt;(if interface in device is vrf mode check L3vpn&lt;br&gt;if interface in device is l2mode check &amp;nbsp;L2vpn)" style="rhombus;whiteSpace=wrap;html=1;shadow=0;fontFamily=Helvetica;fontSize=12;align=center;strokeWidth=1;spacing=6;spacingTop=-4;" parent="WIyWlLk6GJQsqaUBKTNV-1" vertex="1">
          <mxGeometry x="-40" y="340" width="310" height="230" as="geometry" />
        </mxCell>
        <mxCell id="bVRr8DS_3ZcKGTm57Yvw-38" value="Yes" style="edgeStyle=orthogonalEdgeStyle;rounded=0;html=1;jettySize=auto;orthogonalLoop=1;fontSize=11;endArrow=block;endFill=0;endSize=8;strokeWidth=1;shadow=0;labelBackgroundColor=none;exitX=0.5;exitY=1;exitDx=0;exitDy=0;entryX=1;entryY=0.5;entryDx=0;entryDy=0;" parent="WIyWlLk6GJQsqaUBKTNV-1" source="bVRr8DS_3ZcKGTm57Yvw-30" edge="1">
          <mxGeometry y="10" relative="1" as="geometry">
            <mxPoint as="offset" />
            <mxPoint x="-150" y="520.25" as="sourcePoint" />
            <mxPoint x="-501.5" y="670.1700000000001" as="targetPoint" />
            <Array as="points">
              <mxPoint x="115" y="660" />
              <mxPoint x="-501" y="660" />
            </Array>
          </mxGeometry>
        </mxCell>
        <mxCell id="bVRr8DS_3ZcKGTm57Yvw-41" value="" style="endArrow=classic;html=1;exitX=1;exitY=0.5;exitDx=0;exitDy=0;edgeStyle=orthogonalEdgeStyle;" parent="WIyWlLk6GJQsqaUBKTNV-1" source="bVRr8DS_3ZcKGTm57Yvw-30" target="2YHeLg_Dz0wS9hWvOMCt-4" edge="1">
          <mxGeometry width="50" height="50" relative="1" as="geometry">
            <mxPoint x="80" y="610" as="sourcePoint" />
            <mxPoint x="371.0500000000002" y="458.9100000000001" as="targetPoint" />
          </mxGeometry>
        </mxCell>
        <mxCell id="bVRr8DS_3ZcKGTm57Yvw-42" value="No" style="edgeLabel;html=1;align=center;verticalAlign=middle;resizable=0;points=[];" parent="bVRr8DS_3ZcKGTm57Yvw-41" vertex="1" connectable="0">
          <mxGeometry x="-0.027" relative="1" as="geometry">
            <mxPoint as="offset" />
          </mxGeometry>
        </mxCell>
        <mxCell id="2YHeLg_Dz0wS9hWvOMCt-4" value="Service &amp;nbsp;=L3vpn&lt;br&gt;Interface Mode=L2vpn" style="rhombus;whiteSpace=wrap;html=1;fillColor=none;gradientColor=none;" vertex="1" parent="WIyWlLk6GJQsqaUBKTNV-1">
          <mxGeometry x="344" y="320" width="140" height="130.17" as="geometry" />
        </mxCell>
        <mxCell id="2YHeLg_Dz0wS9hWvOMCt-5" value="Service &amp;nbsp;=L2vpn&lt;br&gt;Interface Mode=L3vpn" style="rhombus;whiteSpace=wrap;html=1;fillColor=none;gradientColor=none;" vertex="1" parent="WIyWlLk6GJQsqaUBKTNV-1">
          <mxGeometry x="344" y="469.83" width="140" height="130.17" as="geometry" />
        </mxCell>
        <mxCell id="2YHeLg_Dz0wS9hWvOMCt-7" value="if Qos and Qos != Service Qos" style="rhombus;whiteSpace=wrap;html=1;fillColor=none;gradientColor=none;" vertex="1" parent="WIyWlLk6GJQsqaUBKTNV-1">
          <mxGeometry x="344" y="620" width="140" height="130.17" as="geometry" />
        </mxCell>
        <mxCell id="2YHeLg_Dz0wS9hWvOMCt-9" value="Service &amp;nbsp;=L3vpn&lt;br&gt;If VRF and VRF != Servive VRF" style="rhombus;whiteSpace=wrap;html=1;fillColor=none;gradientColor=none;" vertex="1" parent="WIyWlLk6GJQsqaUBKTNV-1">
          <mxGeometry x="344" y="180" width="140" height="130.17" as="geometry" />
        </mxCell>
        <mxCell id="2YHeLg_Dz0wS9hWvOMCt-10" value="" style="endArrow=classic;html=1;exitX=1;exitY=0.5;exitDx=0;exitDy=0;edgeStyle=orthogonalEdgeStyle;entryX=0;entryY=0.5;entryDx=0;entryDy=0;" edge="1" parent="WIyWlLk6GJQsqaUBKTNV-1" source="bVRr8DS_3ZcKGTm57Yvw-30" target="2YHeLg_Dz0wS9hWvOMCt-9">
          <mxGeometry width="50" height="50" relative="1" as="geometry">
            <mxPoint x="280" y="465" as="sourcePoint" />
            <mxPoint x="340" y="260" as="targetPoint" />
          </mxGeometry>
        </mxCell>
        <mxCell id="2YHeLg_Dz0wS9hWvOMCt-11" value="No" style="edgeLabel;html=1;align=center;verticalAlign=middle;resizable=0;points=[];" vertex="1" connectable="0" parent="2YHeLg_Dz0wS9hWvOMCt-10">
          <mxGeometry x="-0.027" relative="1" as="geometry">
            <mxPoint as="offset" />
          </mxGeometry>
        </mxCell>
        <mxCell id="2YHeLg_Dz0wS9hWvOMCt-13" value="" style="endArrow=classic;html=1;exitX=1;exitY=0.5;exitDx=0;exitDy=0;edgeStyle=orthogonalEdgeStyle;entryX=0;entryY=0.5;entryDx=0;entryDy=0;" edge="1" parent="WIyWlLk6GJQsqaUBKTNV-1" source="bVRr8DS_3ZcKGTm57Yvw-30" target="2YHeLg_Dz0wS9hWvOMCt-5">
          <mxGeometry width="50" height="50" relative="1" as="geometry">
            <mxPoint x="280" y="465" as="sourcePoint" />
            <mxPoint x="354" y="255.08500000000004" as="targetPoint" />
          </mxGeometry>
        </mxCell>
        <mxCell id="2YHeLg_Dz0wS9hWvOMCt-14" value="No" style="edgeLabel;html=1;align=center;verticalAlign=middle;resizable=0;points=[];" vertex="1" connectable="0" parent="2YHeLg_Dz0wS9hWvOMCt-13">
          <mxGeometry x="-0.027" relative="1" as="geometry">
            <mxPoint as="offset" />
          </mxGeometry>
        </mxCell>
        <mxCell id="2YHeLg_Dz0wS9hWvOMCt-15" value="" style="endArrow=classic;html=1;edgeStyle=orthogonalEdgeStyle;entryX=0;entryY=0.5;entryDx=0;entryDy=0;exitX=1;exitY=0.5;exitDx=0;exitDy=0;" edge="1" parent="WIyWlLk6GJQsqaUBKTNV-1" source="bVRr8DS_3ZcKGTm57Yvw-30" target="2YHeLg_Dz0wS9hWvOMCt-7">
          <mxGeometry width="50" height="50" relative="1" as="geometry">
            <mxPoint x="270" y="452" as="sourcePoint" />
            <mxPoint x="354" y="544.915" as="targetPoint" />
          </mxGeometry>
        </mxCell>
        <mxCell id="2YHeLg_Dz0wS9hWvOMCt-16" value="No" style="edgeLabel;html=1;align=center;verticalAlign=middle;resizable=0;points=[];" vertex="1" connectable="0" parent="2YHeLg_Dz0wS9hWvOMCt-15">
          <mxGeometry x="-0.027" relative="1" as="geometry">
            <mxPoint as="offset" />
          </mxGeometry>
        </mxCell>
        <mxCell id="2YHeLg_Dz0wS9hWvOMCt-17" value="Exception&lt;br&gt;Unmanaged Interface need to clean VRF QOS L2VPN Mode &amp;nbsp;" style="shape=ext;double=1;rounded=1;whiteSpace=wrap;html=1;fillColor=none;gradientColor=none;" vertex="1" parent="WIyWlLk6GJQsqaUBKTNV-1">
          <mxGeometry x="590" y="450.1700000000001" width="150" height="60" as="geometry" />
        </mxCell>
        <mxCell id="2YHeLg_Dz0wS9hWvOMCt-18" value="" style="endArrow=classic;html=1;edgeStyle=orthogonalEdgeStyle;entryX=0;entryY=0.5;entryDx=0;entryDy=0;exitX=1;exitY=0.5;exitDx=0;exitDy=0;" edge="1" parent="WIyWlLk6GJQsqaUBKTNV-1" source="2YHeLg_Dz0wS9hWvOMCt-7" target="2YHeLg_Dz0wS9hWvOMCt-17">
          <mxGeometry width="50" height="50" relative="1" as="geometry">
            <mxPoint x="279.9999999999998" y="465" as="sourcePoint" />
            <mxPoint x="354" y="695.085" as="targetPoint" />
          </mxGeometry>
        </mxCell>
        <mxCell id="2YHeLg_Dz0wS9hWvOMCt-19" value="Yes" style="edgeLabel;html=1;align=center;verticalAlign=middle;resizable=0;points=[];" vertex="1" connectable="0" parent="2YHeLg_Dz0wS9hWvOMCt-18">
          <mxGeometry x="-0.027" relative="1" as="geometry">
            <mxPoint as="offset" />
          </mxGeometry>
        </mxCell>
        <mxCell id="2YHeLg_Dz0wS9hWvOMCt-20" value="" style="endArrow=classic;html=1;edgeStyle=orthogonalEdgeStyle;entryX=0;entryY=0.5;entryDx=0;entryDy=0;exitX=1;exitY=0.5;exitDx=0;exitDy=0;" edge="1" parent="WIyWlLk6GJQsqaUBKTNV-1" source="2YHeLg_Dz0wS9hWvOMCt-5" target="2YHeLg_Dz0wS9hWvOMCt-17">
          <mxGeometry width="50" height="50" relative="1" as="geometry">
            <mxPoint x="424" y="760.1699999999998" as="sourcePoint" />
            <mxPoint x="410.89999999999986" y="825.6399999999999" as="targetPoint" />
          </mxGeometry>
        </mxCell>
        <mxCell id="2YHeLg_Dz0wS9hWvOMCt-21" value="Yes" style="edgeLabel;html=1;align=center;verticalAlign=middle;resizable=0;points=[];" vertex="1" connectable="0" parent="2YHeLg_Dz0wS9hWvOMCt-20">
          <mxGeometry x="-0.027" relative="1" as="geometry">
            <mxPoint as="offset" />
          </mxGeometry>
        </mxCell>
        <mxCell id="2YHeLg_Dz0wS9hWvOMCt-22" value="" style="endArrow=classic;html=1;edgeStyle=orthogonalEdgeStyle;exitX=1;exitY=0.5;exitDx=0;exitDy=0;entryX=0;entryY=0.5;entryDx=0;entryDy=0;" edge="1" parent="WIyWlLk6GJQsqaUBKTNV-1" source="2YHeLg_Dz0wS9hWvOMCt-4" target="2YHeLg_Dz0wS9hWvOMCt-17">
          <mxGeometry width="50" height="50" relative="1" as="geometry">
            <mxPoint x="464" y="490.17" as="sourcePoint" />
            <mxPoint x="400" y="810" as="targetPoint" />
          </mxGeometry>
        </mxCell>
        <mxCell id="2YHeLg_Dz0wS9hWvOMCt-23" value="Yes" style="edgeLabel;html=1;align=center;verticalAlign=middle;resizable=0;points=[];" vertex="1" connectable="0" parent="2YHeLg_Dz0wS9hWvOMCt-22">
          <mxGeometry x="-0.027" relative="1" as="geometry">
            <mxPoint as="offset" />
          </mxGeometry>
        </mxCell>
        <mxCell id="2YHeLg_Dz0wS9hWvOMCt-24" value="" style="endArrow=classic;html=1;edgeStyle=orthogonalEdgeStyle;exitX=1;exitY=0.5;exitDx=0;exitDy=0;entryX=0;entryY=0.5;entryDx=0;entryDy=0;" edge="1" parent="WIyWlLk6GJQsqaUBKTNV-1" source="2YHeLg_Dz0wS9hWvOMCt-9" target="2YHeLg_Dz0wS9hWvOMCt-17">
          <mxGeometry width="50" height="50" relative="1" as="geometry">
            <mxPoint x="424" y="460.16999999999996" as="sourcePoint" />
            <mxPoint x="410" y="820" as="targetPoint" />
          </mxGeometry>
        </mxCell>
        <mxCell id="2YHeLg_Dz0wS9hWvOMCt-25" value="Yes" style="edgeLabel;html=1;align=center;verticalAlign=middle;resizable=0;points=[];" vertex="1" connectable="0" parent="2YHeLg_Dz0wS9hWvOMCt-24">
          <mxGeometry x="-0.027" relative="1" as="geometry">
            <mxPoint as="offset" />
          </mxGeometry>
        </mxCell>
        <mxCell id="2YHeLg_Dz0wS9hWvOMCt-26" value="if EVI and EVI &amp;nbsp;!= Service EVI" style="rhombus;whiteSpace=wrap;html=1;fillColor=none;gradientColor=none;" vertex="1" parent="WIyWlLk6GJQsqaUBKTNV-1">
          <mxGeometry x="344" y="760" width="140" height="130.17" as="geometry" />
        </mxCell>
        <mxCell id="2YHeLg_Dz0wS9hWvOMCt-27" value="" style="endArrow=classic;html=1;edgeStyle=orthogonalEdgeStyle;entryX=0;entryY=0.5;entryDx=0;entryDy=0;exitX=1;exitY=0.5;exitDx=0;exitDy=0;" edge="1" parent="WIyWlLk6GJQsqaUBKTNV-1" source="bVRr8DS_3ZcKGTm57Yvw-30" target="2YHeLg_Dz0wS9hWvOMCt-26">
          <mxGeometry width="50" height="50" relative="1" as="geometry">
            <mxPoint x="279.9999999999998" y="465" as="sourcePoint" />
            <mxPoint x="354" y="695.085" as="targetPoint" />
          </mxGeometry>
        </mxCell>
        <mxCell id="2YHeLg_Dz0wS9hWvOMCt-28" value="No" style="edgeLabel;html=1;align=center;verticalAlign=middle;resizable=0;points=[];" vertex="1" connectable="0" parent="2YHeLg_Dz0wS9hWvOMCt-27">
          <mxGeometry x="-0.027" relative="1" as="geometry">
            <mxPoint as="offset" />
          </mxGeometry>
        </mxCell>
        <mxCell id="2YHeLg_Dz0wS9hWvOMCt-29" value="" style="endArrow=classic;html=1;edgeStyle=orthogonalEdgeStyle;exitX=1;exitY=0.5;exitDx=0;exitDy=0;" edge="1" parent="WIyWlLk6GJQsqaUBKTNV-1" source="2YHeLg_Dz0wS9hWvOMCt-26">
          <mxGeometry width="50" height="50" relative="1" as="geometry">
            <mxPoint x="494" y="695.085" as="sourcePoint" />
            <mxPoint x="590" y="480" as="targetPoint" />
            <Array as="points">
              <mxPoint x="540" y="825" />
              <mxPoint x="540" y="480" />
            </Array>
          </mxGeometry>
        </mxCell>
        <mxCell id="2YHeLg_Dz0wS9hWvOMCt-30" value="Yes" style="edgeLabel;html=1;align=center;verticalAlign=middle;resizable=0;points=[];" vertex="1" connectable="0" parent="2YHeLg_Dz0wS9hWvOMCt-29">
          <mxGeometry x="-0.027" relative="1" as="geometry">
            <mxPoint as="offset" />
          </mxGeometry>
        </mxCell>
      </root>
    </mxGraphModel>
  </diagram>
</mxfile>
